# xmcd
#
# Track frame offsets: 
#        150
#        16615
#        33122
#        47552
#        61564
#        81279
#        96705
#        115762
#        130367
#        144040
#
# Disc length: 2156 seconds
#
# Revision: 3
# Processed by: cddbd v1.5.2PL0 Copyright (c) Steve Scherf et al.
# Submitted via: ExactAudioCopy v0.95b4
#
DISCID=73086a0a
DTITLE=Kenny Rogers - Love Songs
DYEAR=1900
DGENRE=Country
TTITLE0=Love Will Turn You Around
TTITLE1=You Decorated My Life
TTITLE2=Love The World Away
TTITLE3=Today I Started Loving You Again (With The First Edition)
TTITLE4=Through The Years
TTITLE5=Love Is What We Make It
TTITLE6=She Believes In Me
TTITLE7=But You Know I Love You
TTITLE8=Every Time Two Fools Collide (With Dottie West)
TTITLE9=Lady
EXTD=
EXTT0=
EXTT1=
EXTT2=
EXTT3=
EXTT4=
EXTT5=
EXTT6=
EXTT7=
EXTT8=
EXTT9=
PLAYORDER=
